<svg viewBox="0 0 25 25" fill="none" xmlns="http://www.w3.org/2000/svg">
    <g>
        <path
            d="M4.95483 20.9434C4.40483 20.9434 3.934 20.7476 3.54233 20.3559C3.15067 19.9642 2.95483 19.4934 2.95483 18.9434V6.9434C2.95483 6.3934 3.15067 5.92256 3.54233 5.5309C3.934 5.13923 4.40483 4.9434 4.95483 4.9434H10.1298C10.3965 4.9434 10.6507 4.9934 10.8923 5.0934C11.134 5.1934 11.3465 5.33506 11.5298 5.5184L12.9548 6.9434H20.9548C21.5048 6.9434 21.9757 7.13923 22.3673 7.5309C22.759 7.92256 22.9548 8.3934 22.9548 8.9434V18.9434C22.9548 19.4934 22.759 19.9642 22.3673 20.3559C21.9757 20.7476 21.5048 20.9434 20.9548 20.9434H4.95483Z"
            fill="currentColor" />
    </g>
</svg>