<svg viewBox="0 0 25 24" fill="none" xmlns="http://www.w3.org/2000/svg">
    <g>
        <path
            d="M22.5 8H8.35C7.31667 8 6.41667 8.325 5.65 8.975C4.88333 9.625 4.5 10.45 4.5 11.45V18L6.475 11.425C6.60833 10.9917 6.85417 10.6458 7.2125 10.3875C7.57083 10.1292 7.96667 10 8.4 10H21.3C21.9833 10 22.5208 10.2708 22.9125 10.8125C23.3042 11.3542 23.4083 11.9417 23.225 12.575L21.425 18.575C21.2917 19.0083 21.0458 19.3542 20.6875 19.6125C20.3292 19.8708 19.9333 20 19.5 20H4.5C3.95 20 3.47917 19.8042 3.0875 19.4125C2.69583 19.0208 2.5 18.55 2.5 18V6C2.5 5.45 2.69583 4.97917 3.0875 4.5875C3.47917 4.19583 3.95 4 4.5 4H9.675C9.94167 4 10.1958 4.05 10.4375 4.15C10.6792 4.25 10.8917 4.39167 11.075 4.575L12.5 6H20.5C21.05 6 21.5208 6.19583 21.9125 6.5875C22.3042 6.97917 22.5 7.45 22.5 8Z"
            fill="currentColor" />
    </g>
</svg>