<svg viewBox="0 0 24 24" fill="none" xmlns="http://www.w3.org/2000/svg">
    <path
        d="M21.8095 3.93988C20.2695 7.77988 16.4095 12.9999 13.1795 15.5899L11.2095 17.1699C10.9595 17.3499 10.7095 17.5099 10.4295 17.6199C10.4295 17.4399 10.4195 17.2399 10.3895 17.0499C10.2795 16.2099 9.89953 15.4299 9.22953 14.7599C8.54953 14.0799 7.71953 13.6799 6.86953 13.5699C6.66953 13.5599 6.46953 13.5399 6.26953 13.5599C6.37953 13.2499 6.54953 12.9599 6.75953 12.7199L8.31953 10.7499C10.8995 7.51988 16.1395 3.63988 19.9695 2.10988C20.5595 1.88988 21.1295 2.04988 21.4895 2.41988C21.8695 2.78988 22.0495 3.35988 21.8095 3.93988Z"
        stroke="currentColor" stroke-width="1.5" stroke-linecap="round" stroke-linejoin="round" />
    <path
        d="M14.2403 14.4702C14.2403 11.8602 12.1203 9.74023 9.51027 9.74023M10.4303 17.6202C10.4303 18.7202 10.0103 19.7702 9.22027 20.5702C8.61027 21.1802 7.78027 21.6002 6.79027 21.7302L4.33027 22.0002C2.99027 22.1502 1.84027 21.0102 2.00027 19.6502L2.27027 17.1902C2.51027 15.0002 4.34027 13.6002 6.28027 13.5602C6.48027 13.5502 6.69027 13.5602 6.88027 13.5702C7.73027 13.6802 8.56027 14.0702 9.24027 14.7602C9.91027 15.4302 10.2903 16.2102 10.4003 17.0502C10.4103 17.2402 10.4303 17.4302 10.4303 17.6202Z"
        stroke="currentColor" stroke-width="1.5" stroke-linecap="round" stroke-linejoin="round" />
    <path
        d="M13.4703 20.8701C14.9403 22.3401 16.4303 22.3401 17.9003 20.8701L20.8603 17.9101C22.3503 16.4201 22.3503 14.9501 20.8603 13.4601L20.1203 12.7301L17.1603 15.6801M3.11031 10.5101C1.64031 9.02006 1.64031 7.55006 3.11031 6.06006L6.07031 3.10006C7.54031 1.63006 9.03031 1.63006 10.5003 3.10006L11.2403 3.84006M11.2503 3.85006L7.55031 7.55006"
        stroke="currentColor" stroke-width="1.5" stroke-linecap="round" />
</svg>