<svg viewBox="0 0 24 24" fill="none" xmlns="http://www.w3.org/2000/svg">
    <path
        d="M14.26 19.1701L15.99 17.6301C16.96 16.7701 17 16.1701 16.23 15.2001L13.18 11.3301C12.54 10.5201 11.49 10.5201 10.85 11.3301L7.8 15.2001C7.03 16.1701 7.03 16.8001 8.04 17.6301L9.77 19.1701M12.01 11.1201V13.6501M18.54 10.1001L13.24 4.80014M5.46 10.1001L10.76 4.80014M10.75 22.5001H13.27C14.23 22.5001 14.85 21.8201 14.67 20.9901L14.26 19.1801H9.76L9.35 20.9901C9.17 21.7701 9.85 22.5001 10.75 22.5001ZM11.15 5.19014L10.37 4.41014C9.9 3.94014 9.9 3.18014 10.37 2.71014L11.15 1.93014C11.62 1.46014 12.38 1.46014 12.85 1.93014L13.63 2.71014C14.1 3.18014 14.1 3.94014 13.63 4.41014L12.85 5.19014C12.38 5.66014 11.62 5.66014 11.15 5.19014ZM19.45 9.81014H20.55C21.21 9.81014 21.75 10.3501 21.75 11.0101V12.1101C21.75 12.7701 21.21 13.3101 20.55 13.3101H19.45C18.79 13.3101 18.25 12.7701 18.25 12.1101V11.0101C18.25 10.3501 18.79 9.81014 19.45 9.81014ZM4.55 9.81014H3.45C2.79 9.81014 2.25 10.3501 2.25 11.0101V12.1101C2.25 12.7701 2.79 13.3101 3.45 13.3101H4.55C5.21 13.3101 5.75 12.7701 5.75 12.1101V11.0101C5.75 10.3501 5.21 9.81014 4.55 9.81014Z"
        stroke="currentColor" stroke-width="1.5" stroke-linecap="round" stroke-linejoin="round" />
</svg>