<svg width="24" height="24" viewBox="0 0 24 24" fill="none" xmlns="http://www.w3.org/2000/svg">
<path d="M21.091 6.97999C20.241 6.03999 18.821 5.56999 16.761 5.56999H16.521V5.52999C16.521 3.84999 16.521 1.76999 12.761 1.76999H11.241C7.48101 1.76999 7.48101 3.85999 7.48101 5.52999V5.57999H7.24101C5.17101 5.57999 3.76101 6.04999 2.91101 6.98999C1.92101 8.08999 1.95101 9.56999 2.05101 10.58L2.06101 10.65L2.13801 11.463C2.15301 11.613 2.23301 11.748 2.35901 11.83C2.59901 11.987 3.00001 12.246 3.24101 12.38C3.38101 12.47 3.53101 12.55 3.68101 12.63C5.39101 13.57 7.27101 14.2 9.18101 14.51C9.27101 15.45 9.68101 16.55 11.871 16.55C14.061 16.55 14.491 15.46 14.561 14.49C16.601 14.16 18.571 13.45 20.351 12.41C20.411 12.38 20.451 12.35 20.501 12.32C20.898 12.095 21.309 11.819 21.684 11.548C21.7398 11.5076 21.7866 11.4559 21.8212 11.3963C21.8558 11.3367 21.8776 11.2705 21.885 11.202L21.901 11.059L21.951 10.589C21.961 10.529 21.961 10.479 21.971 10.409C22.051 9.39899 22.031 8.01999 21.091 6.97999ZM13.091 13.83C13.091 14.89 13.091 15.05 11.861 15.05C10.631 15.05 10.631 14.86 10.631 13.84V12.58H13.091V13.83ZM8.91101 5.56999V5.52999C8.91101 3.82999 8.91101 3.19999 11.241 3.19999H12.761C15.091 3.19999 15.091 3.83999 15.091 5.52999V5.57999H8.91101V5.56999Z" fill="currentColor"/>
<path d="M20.8731 13.735C20.9539 13.6965 21.0435 13.68 21.1327 13.6872C21.2219 13.6944 21.3077 13.725 21.3813 13.7759C21.455 13.8268 21.5139 13.8963 21.5521 13.9772C21.5903 14.0582 21.6065 14.1478 21.5991 14.237L21.2391 18.191C21.0291 20.191 20.2091 22.231 15.8091 22.231H8.19007C3.79007 22.231 2.97007 20.191 2.76007 18.201L2.42007 14.453C2.4125 14.3647 2.42817 14.2759 2.46553 14.1955C2.50289 14.1151 2.56064 14.0459 2.63303 13.9948C2.70542 13.9436 2.78994 13.9123 2.87819 13.9039C2.96644 13.8955 3.05534 13.9104 3.13607 13.947C4.27607 14.463 6.37807 15.377 7.67707 15.717C7.75814 15.739 7.83335 15.7786 7.89732 15.8331C7.96128 15.8875 8.01242 15.9555 8.04707 16.032C8.65407 17.33 9.97007 18.021 11.8711 18.021C13.7531 18.021 15.0861 17.303 15.6951 16.002C15.7298 15.9255 15.7809 15.8576 15.8449 15.8032C15.9088 15.7487 15.984 15.7091 16.0651 15.687C17.4441 15.324 19.6831 14.302 20.8751 13.735H20.8731Z" fill="currentColor"/>
</svg>
